HIERARCHY
ROOT hip
{
  OFFSET 0 0 0
  CHANNELS 6 Xposition Yposition Zposition Zrotation Yrotation Xrotation
  JOINT abdomen
  {
    OFFSET 0 20.6881 -0.73152
    CHANNELS 3 Zrotation Xrotation Yrotation
    JOINT chest
    {
      OFFSET 0 11.7043 -0.48768
      CHANNELS 3 Zrotation Xrotation Yrotation
      JOINT neck
      {
        OFFSET 0 22.1894 -2.19456
        CHANNELS 3 Zrotation Xrotation Yrotation
        JOINT head
        {
          OFFSET -0.24384 7.07133 1.2192
          CHANNELS 3 Zrotation Xrotation Yrotation
          JOINT leftEye
          {
            OFFSET 4.14528 8.04674 8.04672
            CHANNELS 3 Zrotation Xrotation Yrotation
            End Site
            {
              OFFSET 1 0 0
            }
          }
          JOINT rightEye
          {
            OFFSET -3.6576 8.04674 8.04672
            CHANNELS 3 Zrotation Xrotation Yrotation
            End Site
            {
              OFFSET 1 0 0
            }
          }
        }
      }
      JOINT rCollar
      {
        OFFSET -2.68224 19.2634 -4.8768
        CHANNELS 3 Zrotation Xrotation Yrotation
        JOINT rShldr
        {
          OFFSET -8.77824 -1.95073 1.46304
          CHANNELS 3 Zrotation Xrotation Yrotation
          JOINT rForeArm
          {
            OFFSET -28.1742 -1.7115 0.48768
            CHANNELS 3 Zrotation Xrotation Yrotation
            JOINT rHand
            {
              OFFSET -22.5879 0.773209 7.07136
              CHANNELS 3 Zrotation Xrotation Yrotation
              JOINT rThumb1
              {
                OFFSET -1.2192 -0.487915 3.41376
                CHANNELS 3 Zrotation Xrotation Yrotation
                JOINT rThumb2
                {
                  OFFSET -3.37035 -0.52449 3.41376
                  CHANNELS 3 Zrotation Xrotation Yrotation
                  End Site
                  {
                    OFFSET -1.78271 -1.18214 1.43049
                  }
                }
              }
              JOINT rIndex1
              {
                OFFSET -7.75947 0.938293 5.60832
                CHANNELS 3 Zrotation Xrotation Yrotation
                JOINT rIndex2
                {
                  OFFSET -2.54057 -0.884171 1.56538
                  CHANNELS 3 Zrotation Xrotation Yrotation
                  End Site
                  {
                    OFFSET -1.62519 -0.234802 1.16502
                  }
                }
              }
              JOINT rMid1
              {
                OFFSET -8.24714 1.18213 3.41376
                CHANNELS 3 Zrotation Xrotation Yrotation
                JOINT rMid2
                {
                  OFFSET -3.10165 -0.590103 1.0647
                  CHANNELS 3 Zrotation Xrotation Yrotation
                  End Site
                  {
                    OFFSET -2.48547 -0.328903 0.83742
                  }
                }
              }
              JOINT rRing1
              {
                OFFSET -8.82822 0.546677 1.51678
                CHANNELS 3 Zrotation Xrotation Yrotation
                JOINT rRing2
                {
                  OFFSET -2.60934 -0.819778 -0.0198488
                  CHANNELS 3 Zrotation Xrotation Yrotation
                  End Site
                  {
                    OFFSET -2.33842 -0.294052 0.168128
                  }
                }
              }
              JOINT rPinky1
              {
                OFFSET -8.27202 -0.0477905 -0.4584
                CHANNELS 3 Zrotation Xrotation Yrotation
                JOINT rPinky2
                {
                  OFFSET -1.82734 -0.647385 -0.700984
                  CHANNELS 3 Zrotation Xrotation Yrotation
                  End Site
                  {
                    OFFSET -1.69225 -0.51767 -0.607171
                  }
                }
              }
            }
          }
        }
      }
      JOINT lCollar
      {
        OFFSET 2.68224 19.2634 -4.8768
        CHANNELS 3 Zrotation Xrotation Yrotation
        JOINT lShldr
        {
          OFFSET 8.77824 -1.95073 1.46304
          CHANNELS 3 Zrotation Xrotation Yrotation
          JOINT lForeArm
          {
            OFFSET 28.1742 -1.7115 0.48768
            CHANNELS 3 Zrotation Xrotation Yrotation
            JOINT lHand
            {
              OFFSET 22.5879 0.773209 7.07136
              CHANNELS 3 Zrotation Xrotation Yrotation
              JOINT lThumb1
              {
                OFFSET 1.2192 -0.487915 3.41376
                CHANNELS 3 Zrotation Xrotation Yrotation
                JOINT lThumb2
                {
                  OFFSET 3.37035 -0.52449 3.41376
                  CHANNELS 3 Zrotation Xrotation Yrotation
                  End Site
                  {
                    OFFSET 1.78271 -1.18214 1.43049
                  }
                }
              }
              JOINT lIndex1
              {
                OFFSET 7.75947 0.938293 5.60832
                CHANNELS 3 Zrotation Xrotation Yrotation
                JOINT lIndex2
                {
                  OFFSET 2.54057 -0.884171 1.56538
                  CHANNELS 3 Zrotation Xrotation Yrotation
                  End Site
                  {
                    OFFSET 1.62519 -0.234802 1.16502
                  }
                }
              }
              JOINT lMid1
              {
                OFFSET 8.24714 1.18213 3.41376
                CHANNELS 3 Zrotation Xrotation Yrotation
                JOINT lMid2
                {
                  OFFSET 3.10165 -0.590103 1.0647
                  CHANNELS 3 Zrotation Xrotation Yrotation
                  End Site
                  {
                    OFFSET 2.48547 -0.328903 0.83742
                  }
                }
              }
              JOINT lRing1
              {
                OFFSET 8.82822 0.546677 1.51678
                CHANNELS 3 Zrotation Xrotation Yrotation
                JOINT lRing2
                {
                  OFFSET 2.60934 -0.819778 -0.0198488
                  CHANNELS 3 Zrotation Xrotation Yrotation
                  End Site
                  {
                    OFFSET 2.33842 -0.294052 0.168128
                  }
                }
              }
              JOINT lPinky1
              {
                OFFSET 8.27202 -0.0477905 -0.4584
                CHANNELS 3 Zrotation Xrotation Yrotation
                JOINT lPinky2
                {
                  OFFSET 1.82734 -0.647385 -0.700984
                  CHANNELS 3 Zrotation Xrotation Yrotation
                  End Site
                  {
                    OFFSET 1.69225 -0.51767 -0.607171
                  }
                }
              }
            }
          }
        }
      }
    }
  }
  JOINT rButtock
  {
    OFFSET -8.77824 4.35084 1.2192
    CHANNELS 3 Zrotation Xrotation Yrotation
    JOINT rThigh
    {
      OFFSET 0 -1.70687 -2.19456
      CHANNELS 3 Zrotation Xrotation Yrotation
      JOINT rShin
      {
        OFFSET 0 -36.8199 0.73152
        CHANNELS 3 Zrotation Xrotation Yrotation
        JOINT rFoot
        {
          OFFSET 0.73152 -45.1104 -5.12064
          CHANNELS 3 Zrotation Xrotation Yrotation
          End Site
          {
            OFFSET -1.1221 -3.69964 12.103
          }
        }
      }
    }
  }
  JOINT lButtock
  {
    OFFSET 8.77824 4.35084 1.2192
    CHANNELS 3 Zrotation Xrotation Yrotation
    JOINT lThigh
    {
      OFFSET 0 -1.70687 -2.19456
      CHANNELS 3 Zrotation Xrotation Yrotation
      JOINT lShin
      {
        OFFSET 0 -36.8199 0.73152
        CHANNELS 3 Zrotation Xrotation Yrotation
        JOINT lFoot
        {
          OFFSET -0.73152 -45.1104 -5.12064
          CHANNELS 3 Zrotation Xrotation Yrotation
          End Site
          {
            OFFSET 1.1221 -3.69964 12.103
          }
        }
      }
    }
  }
}
MOTION
Frames:	6
Frame Time:	0.00833333
262.454 83.4871 84.1938 0.0 0.0 0.0 -2.59964 0.000365988 -0.0702748 -0.716704 0.01229 -0.12403 7.60669e-16 -3.18055e-15 -6.95746e-16 3.15881e-15 -6.36111e-15 -2.13849e-15 -0.0 0.0 0.0 -0.0 0.0 0.0 4.46027e-16 1.28123e-17 -9.93923e-17 1.14969e-14 4.16205e-16 -6.75868e-15 1.41733e-13 -2.60408e-14 -1.39944e-13 1.56024e-12 9.2584e-14 -1.43443e-12 3.67771e-12 1.43299e-13 -3.39683e-12 6.34441e-12 2.48083e-13 -5.87528e-12 3.68229e-12 1.45113e-13 -3.41592e-12 7.73091 5.47488 0.417314 3.67752e-12 1.43026e-13 -3.39683e-12 2.90554 0.965183 0.102902 3.68201e-12 1.43523e-13 -3.39922e-12 10.2786 0.731801 0.0259123 3.67294e-12 1.44318e-13 -3.39047e-12 2.22167 -0.733487 -0.20892 4.48528e-16 1.35888e-17 -5.96354e-16 5.60489e-15 4.9075e-16 -7.95139e-15 1.35472e-13 4.75095e-14 -1.46306e-13 1.5303e-12 2.27608e-14 -1.40581e-12 3.60935e-12 1.51561e-13 -3.40319e-12 6.24104e-12 2.63986e-13 -5.86335e-12 3.60357e-12 1.55052e-13 -3.38093e-12 -7.73091 5.47488 -0.417314 3.60948e-12 1.51474e-13 -3.39683e-12 -2.90554 0.965183 -0.102902 3.60448e-12 1.51474e-13 -3.40001e-12 -10.2786 0.731801 -0.0259123 3.61092e-12 1.51474e-13 -3.41274e-12 -2.22167 -0.733487 0.20892 -2.03217e-16 0.0 -3.88251e-19 -1.50086 -1.93106 0.00776892 -0.00872159 -2.07863 -0.0717147 -0.472651 3.99921 0.134509 2.03217e-16 0.0 3.88251e-19 -2.45047 -8.43846 0.261212 -0.00685663 9.70808 -0.175595 0.523253 -1.28001 -0.0328379
256.997 82.352 72.9539 -174.064 -54.7029 173.581 -1.90325 0.63387 -0.158866 -0.893046 1.45914 -0.178719 0.250426 1.66857 0.205163 -0.758454 0.464942 -0.0205445 -0.0 0.0 0.0 -0.0 0.0 0.0 -2.73731e-15 5.84435e-14 -2.90822e-13 22.4506 1.32989 0.946476 -3.62431 -1.54019 5.7647 0.00439221 1.47016 0.206372 1.20794e-09 1.84956e-09 -9.68556e-10 2.08236e-09 3.21355e-09 -1.68317e-09 1.20794e-09 1.84956e-09 -9.68575e-10 7.73091 5.47488 0.417314 1.20794e-09 1.84956e-09 -9.68558e-10 2.90554 0.965183 0.102902 1.20794e-09 1.84956e-09 -9.68558e-10 10.2786 0.731801 0.0259123 1.20793e-09 1.84956e-09 -9.68549e-10 2.22167 -0.733487 -0.20892 -2.74031e-15 5.84408e-14 -2.91209e-13 -22.1633 1.95524 -2.01376 2.8692 -1.11656 -4.66443 -0.0620143 -5.52869 0.764001 6.51728e-10 -1.18834e-09 -7.42965e-10 1.14113e-09 -2.06057e-09 -1.27743e-09 6.51721e-10 -1.18833e-09 -7.42945e-10 -7.73091 5.47488 -0.417314 6.51728e-10 -1.18834e-09 -7.4296e-10 -2.90554 0.965183 -0.102902 6.51722e-10 -1.18834e-09 -7.42963e-10 -10.2786 0.731801 -0.0259123 6.51731e-10 -1.18834e-09 -7.42973e-10 -2.22167 -0.733487 0.20892 -2.03217e-16 0.0 -3.88251e-19 -1.57568 -4.95177 0.610297 0.0365539 7.9063 0.129559 -1.13002 -2.5201 -4.38728 2.03217e-16 0.0 3.88251e-19 -1.41625 -8.12401 1.85442 -0.0234588 15.7673 -0.287959 1.44979 -7.65805 5.25487
256.987 82.3558 72.9687 -174.171 -54.7208 173.667 -1.16383 1.30355 -0.252696 -1.07665 2.98858 -0.236798 0.502286 3.4318 0.422877 -1.56057 0.956386 -0.0417404 -0.0 0.0 0.0 -0.0 0.0 0.0 -7.17086e-15 1.24454e-13 -6.08927e-13 46.1361 2.73487 1.9489 -7.1207 -3.1163 11.8721 -0.00249514 3.02445 0.425014 2.52893e-09 3.84078e-09 -2.00959e-09 4.35968e-09 6.67342e-09 -3.49245e-09 2.52893e-09 3.84078e-09 -2.00961e-09 7.73091 5.47488 0.417314 2.52893e-09 3.84078e-09 -2.00959e-09 2.90554 0.965183 0.102902 2.52893e-09 3.84078e-09 -2.00959e-09 10.2786 0.731801 0.0259123 2.52892e-09 3.84078e-09 -2.00958e-09 2.22167 -0.733487 -0.20892 -7.17934e-15 1.24448e-13 -6.09197e-13 -45.4452 4.01378 -4.14965 5.70473 -2.2719 -9.59999 0.0356541 -11.37 1.59567 1.36632e-09 -2.47866e-09 -1.5536e-09 2.39223e-09 -4.29795e-09 -2.67109e-09 1.36631e-09 -2.47865e-09 -1.55358e-09 -7.73091 5.47488 -0.417314 1.36632e-09 -2.47865e-09 -1.5536e-09 -2.90554 0.965183 -0.102902 1.36631e-09 -2.47866e-09 -1.5536e-09 -10.2786 0.731801 -0.0259123 1.36632e-09 -2.47865e-09 -1.55361e-09 -2.22167 -0.733487 0.20892 -2.03217e-16 0.0 -3.88251e-19 -1.58428 -8.14331 1.25545 0.00489642 18.4611 0.358176 -2.95089 -9.30541 -9.28136 2.03217e-16 0.0 3.88251e-19 -0.341838 -7.78454 3.53471 -0.0128989 22.173 -0.418068 3.73883 -14.2108 11.0901
256.987 82.3535 72.9759 -174.194 -54.7467 173.704 -0.504579 1.90085 -0.336203 -1.23741 4.3528 -0.288757 0.715314 5.00545 0.617583 -2.27436 1.39483 -0.0616497 -0.0 0.0 0.0 -0.0 0.0 0.0 -9.10398e-15 1.75305e-13 -8.72267e-13 67.2199 3.9853 2.84555 -9.9565 -4.43382 17.3414 -0.0186749 4.41025 0.620749 3.61646e-09 5.54839e-09 -2.89888e-09 6.2344e-09 9.64016e-09 -5.03777e-09 3.61646e-09 5.54839e-09 -2.89889e-09 7.73091 5.47488 0.417314 3.61646e-09 5.54838e-09 -2.89888e-09 2.90554 0.965183 0.102902 3.61646e-09 5.54838e-09 -2.89888e-09 10.2786 0.731801 0.0259123 3.61645e-09 5.54838e-09 -2.89887e-09 2.22167 -0.733487 -0.20892 -9.11797e-15 1.75295e-13 -8.72435e-13 -66.0767 5.83667 -6.06934 8.06749 -3.26099 -14.0138 0.272468 -16.574 2.38029 1.94797e-09 -3.56532e-09 -2.22209e-09 3.4109e-09 -6.18224e-09 -3.82055e-09 1.94796e-09 -3.56531e-09 -2.22207e-09 -7.73091 5.47488 -0.417314 1.94796e-09 -3.56532e-09 -2.22209e-09 -2.90554 0.965183 -0.102902 1.94796e-09 -3.56532e-09 -2.22209e-09 -10.2786 0.731801 -0.0259123 1.94797e-09 -3.56532e-09 -2.22209e-09 -2.22167 -0.733487 0.20892 -2.03217e-16 0.0 -3.88251e-19 -1.53154 -10.9885 1.84232 -0.104077 27.8749 0.597667 -5.58581 -15.1453 -13.9098 2.03217e-16 0.0 3.88251e-19 0.599243 -7.47891 5.03357 0.0245661 27.8852 -0.548955 6.97114 -19.7134 16.6937
256.985 82.353 72.979 -174.203 -54.768 173.711 -0.049932 2.3172 -0.393762 -1.34697 5.30402 -0.324846 0.856733 6.10538 0.75277 -2.76801 1.70076 -0.078328 -0.0 0.0 0.0 -0.0 0.0 0.0 -4.78598e-15 1.88255e-13 -9.98694e-13 81.8926 4.85348 3.47192 -11.7816 -5.28269 21.1702 -0.0355652 5.37502 0.757656 4.12035e-09 6.54693e-09 -3.40881e-09 7.10263e-09 1.13741e-08 -5.92322e-09 4.12036e-09 6.54693e-09 -3.40882e-09 7.73091 5.47488 0.417314 4.12035e-09 6.54693e-09 -3.40881e-09 2.90554 0.965183 0.102902 4.12035e-09 6.54693e-09 -3.40881e-09 10.2786 0.731801 0.0259123 4.12034e-09 6.54693e-09 -3.4088e-09 2.22167 -0.733487 -0.20892 -4.80563e-15 1.88243e-13 -9.98794e-13 -80.3737 7.09804 -7.42188 9.62666 -3.91873 -17.1037 0.527874 -20.1961 2.96341 2.19726e-09 -4.14284e-09 -2.5352e-09 3.84851e-09 -7.18385e-09 -4.35949e-09 2.19725e-09 -4.14284e-09 -2.53519e-09 -7.73091 5.47488 -0.417314 2.19726e-09 -4.14284e-09 -2.5352e-09 -2.90554 0.965183 -0.102902 2.19725e-09 -4.14284e-09 -2.5352e-09 -10.2786 0.731801 -0.0259123 2.19727e-09 -4.14284e-09 -2.5352e-09 -2.22167 -0.733487 0.20892 -2.03217e-16 0.0 -3.88251e-19 -1.46333 -12.9721 2.25937 -0.237247 34.4376 0.799999 -8.01786 -19.034 -17.3642 2.03217e-16 0.0 3.88251e-19 1.24465 -7.26858 6.08391 0.0689546 31.8644 -0.651558 9.91845 -23.2511 20.909
256.983 82.3529 72.9844 -174.227 -54.7873 173.735 0.115969 2.48062 -0.415657 -1.38741 5.67662 -0.338509 0.907832 6.54339 0.803294 -2.95113 1.82073 -0.0902114 -0.0 0.0 0.0 -0.0 0.0 0.0 1.35247e-14 1.31827e-13 -9.40674e-13 87.6316 5.18785 3.71497 -12.4621 -5.59765 22.6734 -0.0434138 5.75103 0.811187 3.84992e-09 6.7133e-09 -3.41101e-09 6.63577e-09 1.16604e-08 -5.92574e-09 3.84993e-09 6.7133e-09 -3.41102e-09 7.73091 5.47488 0.417314 3.84992e-09 6.7133e-09 -3.41101e-09 2.90554 0.965183 0.102902 3.84992e-09 6.7133e-09 -3.41101e-09 10.2786 0.731801 0.0259123 3.84991e-09 6.7133e-09 -3.411e-09 2.22167 -0.733487 -0.20892 1.35001e-14 1.31817e-13 -9.40753e-13 -85.9326 7.59096 -7.96106 10.2234 -4.17073 -18.3271 0.649417 -21.6105 3.20166 1.92999e-09 -4.08331e-09 -2.45048e-09 3.38588e-09 -7.08133e-09 -4.21695e-09 1.92999e-09 -4.08331e-09 -2.45047e-09 -7.73091 5.47488 -0.417314 1.92999e-09 -4.08331e-09 -2.45048e-09 -2.90554 0.965183 -0.102902 1.92999e-09 -4.08331e-09 -2.45048e-09 -10.2786 0.731801 -0.0259123 1.93e-09 -4.08331e-09 -2.45049e-09 -2.22167 -0.733487 0.20892 -2.03217e-16 0.0 -3.88251e-19 -1.43691 -13.7526 2.42226 -0.305377 37.01 0.890809 -9.11192 -20.5077 -18.7825 2.03217e-16 0.0 3.88251e-19 1.49347 -7.19666 6.51094 0.0907469 33.4178 -0.694402 11.2215 -24.5126 22.6483
